<mxfile host="app.diagrams.net" modified="2022-09-18T12:24:53.560Z" agent="5.0 (Windows NT 10.0; Win64; x64) AppleWebKit/537.36 (KHTML, like Gecko) Chrome/105.0.0.0 Safari/537.36" etag="OZn6BAFfPJJT-rZHcXsY" version="20.1.1" type="github">
  <diagram id="KGQSrX6MAC9u6_jmNb5x" name="Page-1">
    <mxGraphModel dx="1422" dy="794" grid="1" gridSize="10" guides="1" tooltips="1" connect="1" arrows="1" fold="1" page="1" pageScale="1" pageWidth="827" pageHeight="1169" math="0" shadow="0">
      <root>
        <mxCell id="0" />
        <mxCell id="1" parent="0" />
        <mxCell id="3ksTtSTZbK8jBUs65AJS-1" value="" style="shape=mxgraph.signs.people.woman_1;html=1;pointerEvents=1;fillColor=#000000;strokeColor=none;verticalLabelPosition=bottom;verticalAlign=top;align=center;sketch=0;" vertex="1" parent="1">
          <mxGeometry x="111" y="64" width="610" height="1100" as="geometry" />
        </mxCell>
        <mxCell id="3ksTtSTZbK8jBUs65AJS-3" value="" style="shape=mxgraph.signs.people.woman_1;html=1;pointerEvents=1;fillColor=#FFFFFF;strokeColor=none;verticalLabelPosition=bottom;verticalAlign=top;align=center;sketch=0;" vertex="1" parent="1">
          <mxGeometry x="111" y="64" width="610" height="1100" as="geometry" />
        </mxCell>
      </root>
    </mxGraphModel>
  </diagram>
</mxfile>
